<svg xmlns="http://www.w3.org/2000/svg" xmlns:xlink="http://www.w3.org/1999/xlink" width="500" zoomAndPan="magnify" viewBox="0 0 375 374.999991" height="500" preserveAspectRatio="xMidYMid meet" version="1.0"><defs><clipPath id="251c794cfe"><path d="M 88 153.480469 L 99 153.480469 L 99 170 L 88 170 Z M 88 153.480469 " clip-rule="nonzero"/></clipPath><clipPath id="e6d5a7931a"><path d="M 76.835938 164 L 98 164 L 98 175 L 76.835938 175 Z M 76.835938 164 " clip-rule="nonzero"/></clipPath><clipPath id="ae474fae00"><path d="M 204 220 L 226.835938 220 L 226.835938 228 L 204 228 Z M 204 220 " clip-rule="nonzero"/></clipPath><clipPath id="a25d1e6ee6"><path d="M 183 244 L 192 244 L 192 259.230469 L 183 259.230469 Z M 183 244 " clip-rule="nonzero"/></clipPath><clipPath id="9a2c11ce1b"><path d="M 0 0 L 375 0 L 375 374.75 L 0 374.75 Z M 0 0 " clip-rule="nonzero"/></clipPath></defs><path fill="#ffffff" d="M 113.171875 252.863281 C 113.199219 252.445312 113.238281 252.003906 113.289062 251.519531 C 113.296875 251.429688 113.308594 251.347656 113.316406 251.265625 C 113.335938 251.113281 113.351562 250.957031 113.363281 250.804688 L 113.398438 250.105469 L 113.476562 248.757812 C 113.480469 248.671875 113.484375 248.597656 113.492188 248.523438 C 113.503906 248.371094 113.515625 248.195312 113.511719 248.011719 L 113.511719 247.347656 L 113.515625 246.015625 C 113.523438 245.738281 113.507812 245.472656 113.488281 245.25 L 113.445312 244.59375 C 113.429688 244.425781 113.421875 244.261719 113.410156 244.097656 C 113.394531 243.8125 113.378906 243.519531 113.34375 243.21875 L 113.042969 241.167969 L 112.878906 240.484375 C 112.878906 240.484375 112.667969 239.617188 112.652344 239.5625 C 112.605469 239.367188 112.554688 239.144531 112.460938 238.917969 L 111.957031 237.496094 L 111.945312 237.46875 C 111.835938 237.21875 111.71875 236.96875 111.605469 236.722656 C 111.511719 236.515625 111.417969 236.3125 111.328125 236.109375 C 111.300781 236.054688 111.285156 236.019531 111.273438 235.984375 C 111.230469 235.890625 111.1875 235.792969 111.136719 235.703125 L 110.949219 235.367188 L 110.601562 234.726562 C 109.5625 232.914062 108.109375 231.300781 106.273438 229.902344 C 104.792969 228.773438 103.097656 227.78125 100.777344 226.6875 C 98.503906 225.644531 96.066406 225.101562 93.558594 224.589844 C 93.269531 224.523438 92.867188 224.457031 92.375 224.394531 C 92.097656 224.355469 91.765625 224.316406 91.417969 224.277344 C 91.234375 224.257812 91.046875 224.238281 90.855469 224.214844 C 90.433594 224.167969 90.003906 224.128906 89.566406 224.085938 C 89.1875 224.046875 88.800781 224.007812 88.417969 223.96875 L 87.945312 223.679688 C 88.179688 223.375 88.4375 223.0625 88.726562 222.722656 C 90.007812 221.171875 91 219.871094 91.859375 218.613281 L 91.988281 218.433594 C 92.066406 218.320312 92.148438 218.207031 92.226562 218.09375 L 92.574219 217.523438 L 93.230469 216.457031 C 93.375 216.242188 93.5 216 93.578125 215.839844 L 93.855469 215.296875 C 93.925781 215.160156 93.992188 215.035156 94.058594 214.910156 C 94.191406 214.660156 94.324219 214.40625 94.445312 214.128906 C 95.164062 212.550781 95.6875 210.78125 96.09375 208.578125 C 96.421875 206.617188 96.332031 204.582031 95.835938 202.523438 C 95.425781 200.816406 94.742188 199.066406 93.6875 197.015625 C 93.488281 196.59375 93.25 196.210938 93.015625 195.847656 C 92.941406 195.730469 92.867188 195.613281 92.796875 195.492188 L 92.773438 195.457031 C 92.660156 195.289062 92.539062 195.125 92.421875 194.960938 L 92.003906 194.386719 L 91.722656 194.039062 C 91.117188 193.261719 90.441406 192.519531 89.785156 191.800781 L 89.449219 191.433594 C 89.042969 190.996094 88.359375 190.355469 87.570312 189.675781 L 85.757812 188.128906 C 85.757812 188.128906 85.761719 188.128906 85.761719 188.128906 C 86.566406 188.148438 87.511719 188.167969 88.46875 188.167969 C 89.230469 188.167969 89.921875 188.15625 90.578125 188.132812 C 93.039062 188.058594 95.410156 187.773438 97.613281 187.289062 C 100.207031 186.691406 102.359375 185.855469 104.203125 184.722656 C 106.246094 183.480469 107.96875 181.777344 109.1875 179.792969 C 109.789062 178.828125 110.292969 177.753906 110.683594 176.605469 C 111.0625 175.5 111.339844 174.347656 111.507812 173.183594 C 111.8125 171.128906 111.832031 168.859375 111.5625 166.441406 C 111.503906 165.859375 111.414062 165.269531 111.335938 164.773438 C 111.289062 164.484375 111.242188 164.207031 111.191406 163.933594 C 111.160156 163.742188 111.113281 163.511719 111.066406 163.285156 L 110.992188 162.933594 C 110.953125 162.742188 110.914062 162.550781 110.867188 162.351562 L 110.800781 162.082031 C 110.761719 161.90625 110.722656 161.734375 110.675781 161.554688 L 110.445312 160.699219 L 110.171875 159.8125 L 109.699219 158.421875 L 110.125 158.871094 L 112.941406 161.769531 C 113.160156 161.996094 113.40625 162.242188 113.691406 162.503906 L 114.878906 163.589844 L 116.472656 164.949219 C 116.65625 165.09375 116.839844 165.242188 117.027344 165.386719 C 117.382812 165.667969 117.738281 165.949219 118.097656 166.222656 C 120.375 167.925781 122.757812 169.390625 125.179688 170.578125 C 126.390625 171.144531 127.683594 171.722656 129.019531 172.175781 L 129.515625 172.351562 L 129.996094 172.503906 L 131 172.8125 C 131.164062 172.855469 131.328125 172.898438 131.492188 172.941406 C 131.972656 173.074219 132.472656 173.207031 132.980469 173.308594 C 133.480469 173.429688 133.980469 173.519531 134.460938 173.601562 C 134.636719 173.632812 134.8125 173.664062 134.984375 173.695312 L 135.480469 173.765625 C 135.996094 173.835938 136.53125 173.910156 137.074219 173.953125 C 138.167969 174.050781 139.1875 174.101562 140.179688 174.101562 C 140.515625 174.101562 140.855469 174.097656 141.191406 174.082031 C 144.242188 173.996094 147.414062 173.390625 150.613281 172.289062 C 153.453125 171.3125 156.296875 169.972656 159.300781 168.195312 C 159.917969 167.832031 162.152344 166.464844 164.988281 164.1875 C 167.117188 162.484375 169.335938 160.488281 171.292969 158.519531 C 171.304688 158.632812 171.316406 158.746094 171.328125 158.855469 C 171.375 159.367188 171.425781 159.898438 171.5 160.425781 C 171.820312 163.433594 172.476562 165.984375 173.503906 168.21875 C 173.632812 168.53125 173.785156 168.804688 173.933594 169.070312 L 173.984375 169.164062 C 174.046875 169.269531 174.097656 169.363281 174.148438 169.457031 C 174.253906 169.652344 174.367188 169.859375 174.503906 170.066406 L 175.054688 170.867188 L 175.21875 171.105469 L 175.710938 171.6875 C 176.691406 172.824219 177.742188 173.71875 178.839844 174.355469 C 180.988281 175.648438 183.640625 176.390625 186.496094 176.5 C 186.769531 176.511719 187.050781 176.519531 187.328125 176.519531 C 188.34375 176.519531 189.402344 176.445312 190.46875 176.296875 C 190.816406 176.253906 191.160156 176.195312 191.449219 176.140625 C 191.605469 176.117188 191.773438 176.082031 191.941406 176.046875 L 192.285156 175.980469 C 192.4375 175.949219 192.582031 175.917969 192.726562 175.878906 L 193.523438 175.683594 L 194.101562 175.507812 C 193.886719 175.9375 193.667969 176.40625 193.472656 176.878906 C 193.429688 176.96875 193.390625 177.066406 193.351562 177.164062 L 193.246094 177.425781 C 193.199219 177.539062 193.15625 177.648438 193.136719 177.703125 L 192.949219 178.207031 C 192.683594 178.941406 192.441406 179.671875 192.230469 180.386719 C 191.785156 181.882812 191.445312 183.382812 191.222656 184.839844 C 190.714844 188.171875 190.84375 191.207031 191.605469 193.859375 C 192.230469 196.039062 193.277344 198 194.726562 199.695312 C 196.085938 201.289062 197.820312 202.6875 199.886719 203.855469 C 201.046875 204.507812 202.117188 205.042969 203.164062 205.496094 C 204.40625 206.042969 205.878906 206.578125 207.417969 207.042969 C 208.742188 207.449219 210.011719 207.769531 211.039062 208.007812 C 208.460938 208.707031 206.363281 209.492188 204.511719 210.445312 C 201.488281 212 199.199219 213.675781 197.503906 215.566406 L 197.105469 216.003906 L 196.734375 216.476562 C 196.644531 216.59375 196.558594 216.699219 196.472656 216.804688 C 196.316406 216.996094 196.15625 217.191406 196.003906 217.414062 L 195.367188 218.34375 C 195.210938 218.566406 195.082031 218.789062 194.957031 219.007812 C 194.890625 219.121094 194.828125 219.234375 194.757812 219.34375 C 193.9375 220.785156 193.316406 222.230469 192.890625 223.667969 C 192.605469 224.730469 192.320312 225.859375 192.15625 227.027344 C 192.089844 227.394531 192.046875 227.757812 192.007812 228.109375 C 191.984375 228.308594 191.960938 228.503906 191.933594 228.699219 L 191.929688 228.730469 L 191.929688 228.757812 C 191.914062 228.953125 191.898438 229.148438 191.878906 229.339844 C 191.847656 229.699219 191.816406 230.066406 191.804688 230.445312 C 191.789062 230.617188 191.777344 230.816406 191.761719 231.035156 C 191.6875 232.011719 191.585938 233.351562 191.570312 234.609375 C 191.550781 235.480469 191.570312 236.292969 191.585938 236.886719 C 191.589844 237.035156 191.59375 237.191406 191.59375 237.328125 L 191.5625 237.332031 L 191.53125 237.394531 C 191.308594 237.339844 191.078125 237.277344 190.828125 237.203125 C 188.582031 236.5625 186.203125 235.929688 183.839844 235.78125 C 183.621094 235.769531 183.417969 235.765625 183.214844 235.765625 C 182.121094 235.765625 180.984375 235.898438 179.835938 236.160156 C 178.46875 236.496094 177.214844 237.226562 176.195312 238.273438 C 175.160156 239.324219 174.4375 240.597656 173.921875 241.585938 C 173.214844 242.984375 172.917969 244.519531 172.632812 246 L 172.582031 246.253906 C 172.492188 246.6875 172.433594 247.394531 172.371094 248.214844 C 172.34375 248.578125 172.3125 248.96875 172.277344 249.355469 L 172.125 249.574219 C 171.835938 249.339844 171.550781 249.105469 171.265625 248.867188 L 170.191406 248.003906 C 167.890625 246.148438 165.738281 244.617188 163.613281 243.316406 C 161.164062 241.832031 158.730469 240.632812 156.375 239.753906 C 153.625 238.75 150.621094 238.082031 147.445312 237.773438 C 146.613281 237.699219 145.761719 237.660156 144.910156 237.660156 C 142.664062 237.660156 140.328125 237.929688 137.96875 238.460938 C 135.214844 239.078125 132.296875 240.070312 129.042969 241.496094 C 125.640625 242.992188 122.519531 245.136719 119.652344 247.230469 C 118.894531 247.78125 117.742188 248.730469 116.570312 249.765625 C 115.617188 250.605469 114.5 251.621094 113.171875 252.863281 Z M 113.171875 252.863281 " fill-opacity="1" fill-rule="nonzero"/><path fill="#000000" d="M 212.566406 208.539062 C 212.738281 208.5 212.910156 208.449219 213.078125 208.394531 L 213.25 208.402344 C 213.558594 208.417969 213.96875 208.40625 214.070312 208.121094 C 214.109375 208.011719 214.082031 207.933594 214.023438 207.871094 C 214.027344 207.820312 214.027344 207.757812 214.011719 207.6875 C 213.964844 207.425781 213.84375 207.46875 213.722656 207.46875 C 213.445312 207.472656 213.160156 207.484375 212.875 207.503906 C 211.84375 207.273438 209.828125 206.84375 207.675781 206.183594 C 206.269531 205.761719 204.804688 205.242188 203.523438 204.675781 C 202.234375 204.117188 201.121094 203.523438 200.328125 203.074219 C 198.460938 202.019531 196.765625 200.707031 195.410156 199.113281 C 194.050781 197.523438 193.050781 195.648438 192.46875 193.613281 C 191.679688 190.863281 191.667969 187.882812 192.105469 184.972656 C 192.332031 183.515625 192.664062 182.066406 193.089844 180.640625 C 193.300781 179.929688 193.535156 179.21875 193.789062 178.519531 L 193.984375 177.996094 C 194.007812 177.929688 194.078125 177.757812 194.128906 177.632812 C 194.1875 177.496094 194.230469 177.375 194.300781 177.21875 C 194.542969 176.632812 194.832031 176.042969 195.140625 175.4375 L 195.511719 174.703125 L 195.699219 174.34375 C 195.75 174.230469 195.832031 174.097656 195.863281 174.007812 L 194.125 174.5625 L 193.285156 174.816406 L 192.5 175.011719 C 192.367188 175.046875 192.238281 175.074219 192.109375 175.101562 L 191.761719 175.171875 C 191.605469 175.203125 191.449219 175.234375 191.292969 175.261719 C 190.976562 175.316406 190.664062 175.371094 190.347656 175.410156 C 189.082031 175.582031 187.800781 175.65625 186.53125 175.605469 C 183.988281 175.507812 181.460938 174.886719 179.289062 173.582031 C 178.191406 172.941406 177.230469 172.078125 176.398438 171.109375 L 176.085938 170.742188 L 175.933594 170.558594 L 175.792969 170.363281 L 175.25 169.566406 C 175.070312 169.296875 174.929688 169.007812 174.769531 168.726562 C 174.609375 168.445312 174.449219 168.164062 174.328125 167.863281 C 173.242188 165.507812 172.667969 162.917969 172.390625 160.3125 C 172.273438 159.488281 172.21875 158.65625 172.121094 157.824219 C 172.101562 157.617188 172.039062 157.421875 171.894531 157.34375 C 171.914062 157.222656 171.890625 157.113281 171.785156 157.042969 C 171.574219 156.882812 171.371094 157.164062 171.144531 157.394531 C 169.066406 159.527344 166.65625 161.703125 164.425781 163.492188 C 162.195312 165.28125 160.128906 166.667969 158.84375 167.421875 C 156.125 169.03125 153.285156 170.421875 150.320312 171.441406 C 147.359375 172.464844 144.265625 173.097656 141.160156 173.1875 C 139.816406 173.238281 138.476562 173.179688 137.140625 173.058594 C 136.472656 173.007812 135.8125 172.902344 135.148438 172.816406 C 134.488281 172.695312 133.828125 172.59375 133.175781 172.433594 C 132.519531 172.304688 131.875 172.113281 131.226562 171.945312 L 130.261719 171.648438 L 129.78125 171.496094 L 129.308594 171.328125 C 128.035156 170.894531 126.800781 170.34375 125.574219 169.773438 C 123.144531 168.585938 120.824219 167.144531 118.640625 165.507812 C 118.09375 165.097656 117.5625 164.664062 117.023438 164.246094 L 115.460938 162.910156 L 114.703125 162.214844 L 114.292969 161.839844 C 114.042969 161.613281 113.820312 161.390625 113.582031 161.144531 L 110.777344 158.257812 L 109.097656 156.476562 L 108.257812 155.59375 L 108.050781 155.371094 L 107.902344 155.234375 L 107.53125 154.871094 L 108.984375 159.101562 L 109.316406 160.074219 L 109.589844 160.960938 L 109.808594 161.78125 C 109.878906 162.050781 109.933594 162.304688 109.996094 162.570312 C 110.0625 162.832031 110.109375 163.085938 110.164062 163.339844 C 110.214844 163.59375 110.269531 163.859375 110.308594 164.097656 C 110.363281 164.367188 110.40625 164.640625 110.453125 164.910156 C 110.535156 165.453125 110.613281 165.996094 110.671875 166.539062 C 110.914062 168.714844 110.9375 170.917969 110.621094 173.058594 C 110.460938 174.171875 110.195312 175.265625 109.835938 176.320312 C 109.476562 177.375 109.007812 178.386719 108.425781 179.324219 C 107.265625 181.210938 105.648438 182.796875 103.734375 183.957031 C 101.824219 185.132812 99.65625 185.902344 97.421875 186.414062 C 95.179688 186.910156 92.867188 187.167969 90.542969 187.234375 C 88.964844 187.296875 87.375 187.273438 85.789062 187.234375 C 85.351562 187.21875 84.757812 187.234375 84.621094 187.542969 C 84.597656 187.605469 84.59375 187.652344 84.609375 187.699219 C 84.539062 187.726562 84.46875 187.785156 84.410156 187.894531 C 84.292969 188.101562 84.402344 188.148438 84.492188 188.226562 C 85.332031 188.945312 86.207031 189.691406 86.984375 190.355469 C 87.765625 191.027344 88.417969 191.640625 88.785156 192.035156 C 89.554688 192.878906 90.332031 193.707031 91.023438 194.601562 L 91.292969 194.929688 L 91.539062 195.273438 C 91.703125 195.503906 91.875 195.726562 92.03125 195.960938 C 92.324219 196.441406 92.644531 196.902344 92.882812 197.410156 C 93.769531 199.128906 94.519531 200.882812 94.964844 202.734375 C 95.410156 204.578125 95.527344 206.519531 95.210938 208.417969 C 94.878906 210.234375 94.40625 212.050781 93.621094 213.773438 C 93.457031 214.15625 93.246094 214.515625 93.0625 214.886719 L 92.773438 215.441406 C 92.683594 215.628906 92.582031 215.8125 92.46875 215.988281 L 91.808594 217.054688 L 91.480469 217.59375 C 91.363281 217.765625 91.238281 217.933594 91.117188 218.105469 C 90.171875 219.496094 89.128906 220.832031 88.046875 222.140625 C 87.671875 222.582031 87.304688 223.03125 86.957031 223.5 C 86.859375 223.632812 86.753906 223.828125 86.929688 224.0625 C 86.96875 224.117188 87.007812 224.152344 87.046875 224.175781 C 86.984375 224.242188 86.949219 224.339844 86.964844 224.496094 C 86.984375 224.75 87.109375 224.726562 87.238281 224.742188 C 88.390625 224.878906 89.644531 224.988281 90.75 225.101562 C 91.300781 225.167969 91.816406 225.21875 92.265625 225.285156 C 92.714844 225.339844 93.09375 225.402344 93.378906 225.464844 C 95.785156 225.957031 98.1875 226.488281 100.394531 227.496094 C 102.285156 228.386719 104.101562 229.371094 105.730469 230.617188 C 107.359375 231.851562 108.789062 233.371094 109.816406 235.152344 L 110.167969 235.804688 L 110.351562 236.128906 C 110.410156 236.238281 110.453125 236.355469 110.503906 236.464844 C 110.703125 236.921875 110.925781 237.367188 111.121094 237.824219 L 111.625 239.234375 C 111.71875 239.46875 111.765625 239.714844 111.828125 239.960938 L 112.007812 240.691406 L 112.160156 241.339844 L 112.257812 241.996094 L 112.453125 243.316406 C 112.503906 243.761719 112.515625 244.210938 112.550781 244.65625 L 112.59375 245.324219 C 112.613281 245.550781 112.628906 245.773438 112.621094 246 L 112.613281 247.347656 L 112.617188 248.027344 C 112.621094 248.253906 112.589844 248.476562 112.582031 248.703125 L 112.5 250.0625 L 112.46875 250.742188 C 112.453125 250.972656 112.417969 251.195312 112.398438 251.421875 C 112.332031 252.039062 112.28125 252.65625 112.253906 253.285156 C 112.25 253.457031 112.273438 253.695312 112.574219 253.800781 C 112.648438 253.824219 112.707031 253.832031 112.757812 253.828125 C 112.765625 253.914062 112.804688 253.996094 112.898438 254.066406 C 113.097656 254.222656 113.207031 254.058594 113.34375 253.933594 C 114.582031 252.769531 115.941406 251.515625 117.164062 250.4375 C 118.390625 249.355469 119.492188 248.457031 120.179688 247.953125 C 123.097656 245.820312 126.101562 243.765625 129.402344 242.316406 C 132.246094 241.070312 135.15625 240.007812 138.167969 239.332031 C 141.171875 238.65625 144.28125 238.378906 147.359375 238.667969 C 150.3125 238.953125 153.25 239.566406 156.0625 240.59375 C 158.523438 241.511719 160.882812 242.707031 163.144531 244.078125 C 165.402344 245.460938 167.554688 247.027344 169.628906 248.703125 C 169.984375 248.988281 170.335938 249.269531 170.691406 249.554688 C 171.039062 249.84375 171.390625 250.132812 171.746094 250.414062 C 171.945312 250.570312 172.230469 250.757812 172.488281 250.582031 C 172.527344 250.554688 172.554688 250.523438 172.578125 250.496094 C 172.632812 250.535156 172.71875 250.558594 172.859375 250.542969 C 173.082031 250.515625 173.058594 250.4375 173.070312 250.355469 C 173.253906 248.871094 173.308594 247.148438 173.460938 246.421875 C 173.761719 244.890625 174.035156 243.351562 174.714844 242 C 175.316406 240.851562 175.972656 239.78125 176.839844 238.898438 C 177.695312 238.015625 178.789062 237.339844 180.035156 237.035156 C 181.226562 236.761719 182.492188 236.617188 183.78125 236.675781 C 186.046875 236.816406 188.308594 237.417969 190.570312 238.0625 C 190.957031 238.175781 191.34375 238.277344 191.742188 238.359375 C 191.855469 238.382812 192.011719 238.386719 192.144531 238.148438 C 192.144531 238.144531 192.148438 238.140625 192.148438 238.136719 C 192.488281 238.074219 192.464844 237.871094 192.484375 237.738281 C 192.519531 237.484375 192.429688 236.136719 192.46875 234.621094 C 192.484375 233.105469 192.632812 231.4375 192.699219 230.492188 C 192.71875 229.933594 192.78125 229.378906 192.824219 228.824219 C 192.898438 228.273438 192.9375 227.714844 193.042969 227.167969 C 193.195312 226.066406 193.460938 224.992188 193.75 223.921875 C 194.175781 222.488281 194.78125 221.113281 195.523438 219.8125 C 195.71875 219.496094 195.890625 219.160156 196.105469 218.851562 L 196.742188 217.921875 C 196.957031 217.613281 197.210938 217.332031 197.4375 217.03125 L 197.789062 216.585938 L 198.175781 216.164062 C 200.023438 214.097656 202.40625 212.535156 204.921875 211.238281 C 207.316406 210.007812 209.925781 209.1875 212.566406 208.539062 Z M 196.328125 214.964844 C 194.902344 216.53125 193.742188 218.308594 192.789062 220.171875 C 191.84375 221.960938 191.308594 223.925781 190.9375 225.871094 C 190.289062 229.304688 190.347656 232.824219 191.121094 236.167969 C 191.207031 236.542969 191.3125 236.914062 191.4375 237.28125 C 191.433594 237.28125 191.429688 237.277344 191.425781 237.273438 C 191.246094 237.164062 191.042969 237.042969 190.824219 236.910156 C 190.605469 236.777344 190.367188 236.636719 190.113281 236.511719 C 189.601562 236.257812 189.058594 235.992188 188.546875 235.765625 C 188.027344 235.566406 187.546875 235.398438 187.191406 235.296875 C 185.503906 234.867188 183.726562 234.640625 181.925781 234.792969 L 181.015625 234.902344 C 180.867188 234.914062 180.714844 234.945312 180.566406 234.984375 L 180.113281 235.082031 L 179.664062 235.1875 C 179.515625 235.21875 179.371094 235.28125 179.222656 235.328125 C 178.929688 235.4375 178.632812 235.519531 178.351562 235.652344 C 177.207031 236.136719 176.175781 236.902344 175.375 237.820312 C 174.644531 238.660156 174.046875 239.585938 173.59375 240.558594 C 173.148438 241.539062 172.828125 242.558594 172.636719 243.59375 C 172.273438 245.550781 172.175781 247.523438 172.328125 249.472656 C 172.339844 249.617188 172.363281 249.765625 172.390625 249.910156 C 172.253906 249.714844 171.855469 249.230469 171.273438 248.585938 C 170.957031 248.25 170.59375 247.867188 170.203125 247.449219 C 169.808594 247.039062 169.359375 246.617188 168.90625 246.175781 C 167.980469 245.300781 166.957031 244.417969 165.984375 243.648438 C 165.003906 242.886719 164.082031 242.230469 163.378906 241.800781 C 160.089844 239.757812 156.453125 238.1875 152.644531 237.320312 C 151.355469 237.039062 150.058594 236.800781 148.75 236.660156 C 147.441406 236.523438 146.128906 236.429688 144.8125 236.457031 C 142.183594 236.476562 139.570312 236.835938 137.046875 237.496094 C 132.464844 238.703125 128.113281 240.65625 124.230469 243.269531 C 120.554688 245.742188 117.164062 248.609375 114.183594 251.851562 C 113.863281 252.203125 113.566406 252.570312 113.277344 252.949219 C 113.335938 252.789062 113.394531 252.601562 113.464844 252.394531 C 113.65625 251.785156 113.917969 251 114.082031 250.136719 C 114.5 248.429688 114.730469 246.441406 114.738281 245.296875 C 114.71875 244.625 114.695312 243.949219 114.664062 243.273438 C 114.585938 242.601562 114.492188 241.925781 114.398438 241.253906 C 114.363281 240.914062 114.257812 240.585938 114.1875 240.253906 L 113.949219 239.257812 C 113.878906 238.921875 113.757812 238.601562 113.648438 238.277344 L 113.308594 237.304688 L 113.191406 236.980469 L 112.757812 236.03125 C 112.558594 235.613281 112.386719 235.183594 112.136719 234.789062 L 111.4375 233.589844 L 110.625 232.464844 C 109.492188 231 108.148438 229.714844 106.652344 228.671875 C 105.277344 227.746094 103.835938 226.949219 102.34375 226.289062 C 100.847656 225.636719 99.289062 225.148438 97.714844 224.800781 C 96.21875 224.472656 94.714844 224.230469 93.203125 224.085938 C 91.691406 223.9375 90.175781 223.871094 88.664062 223.914062 C 88.300781 223.921875 87.941406 223.96875 87.582031 224.023438 C 87.75 223.910156 88.019531 223.710938 88.355469 223.449219 C 88.816406 223.078125 89.4375 222.625 90.019531 222.050781 C 90.316406 221.769531 90.625 221.480469 90.925781 221.191406 C 91.078125 221.046875 91.230469 220.902344 91.378906 220.757812 C 91.527344 220.613281 91.65625 220.457031 91.789062 220.308594 C 92.320312 219.710938 92.792969 219.160156 93.113281 218.738281 C 94.558594 216.703125 95.746094 214.441406 96.492188 212.011719 L 96.679688 211.398438 L 96.773438 211.089844 L 96.84375 210.777344 L 97.109375 209.515625 C 97.160156 209.308594 97.183594 209.09375 97.210938 208.878906 L 97.359375 207.597656 C 97.378906 207.386719 97.371094 207.167969 97.378906 206.953125 C 97.46875 205.238281 97.238281 203.507812 96.757812 201.875 C 95.917969 198.898438 94.386719 196.179688 92.417969 193.898438 C 90.527344 191.757812 88.382812 189.878906 86.023438 188.339844 C 85.875 188.246094 85.722656 188.160156 85.570312 188.074219 C 86.015625 188.164062 87.074219 188.324219 88.523438 188.449219 C 90.128906 188.597656 92.21875 188.695312 94.460938 188.558594 C 95.582031 188.507812 96.738281 188.367188 97.882812 188.179688 C 99.027344 187.984375 100.160156 187.703125 101.226562 187.367188 C 102.292969 187.03125 103.289062 186.601562 104.167969 186.152344 C 105.054688 185.710938 105.800781 185.203125 106.417969 184.761719 C 107.132812 184.21875 107.808594 183.625 108.433594 182.972656 C 109.050781 182.316406 109.613281 181.609375 110.113281 180.863281 C 111.109375 179.363281 111.835938 177.703125 112.3125 176.003906 C 113.269531 172.585938 113.296875 169.058594 112.867188 165.675781 C 112.800781 165.148438 112.71875 164.621094 112.628906 164.097656 L 112.558594 163.703125 L 112.546875 163.664062 L 112.523438 163.582031 C 112.488281 163.464844 112.441406 163.324219 112.382812 163.164062 L 112.363281 163.113281 L 112.355469 163.089844 L 112.367188 163.101562 L 112.421875 163.144531 L 112.535156 163.25 L 112.824219 163.5 L 113.75 164.335938 C 114.066406 164.632812 114.40625 164.910156 114.738281 165.195312 C 115.074219 165.472656 115.402344 165.761719 115.742188 166.035156 L 116.773438 166.84375 C 118.164062 167.902344 119.597656 168.917969 121.105469 169.808594 C 122.609375 170.714844 124.160156 171.539062 125.777344 172.226562 C 129.582031 173.871094 133.671875 174.925781 137.820312 175.105469 C 139.894531 175.199219 141.972656 175.085938 144.015625 174.785156 C 146.058594 174.480469 148.066406 173.96875 150.011719 173.304688 C 153.699219 172.035156 157.164062 170.222656 160.375 168.070312 C 163.582031 165.910156 166.546875 163.410156 169.234375 160.652344 C 170.039062 159.824219 170.78125 158.945312 171.492188 158.042969 C 171.367188 160.085938 171.550781 162.304688 171.933594 164.253906 C 172.050781 164.757812 172.144531 165.25 172.269531 165.710938 C 172.414062 166.167969 172.546875 166.605469 172.675781 167.011719 C 172.800781 167.417969 172.972656 167.777344 173.097656 168.113281 C 173.234375 168.445312 173.339844 168.75 173.472656 168.992188 L 173.863281 169.785156 C 173.929688 169.914062 173.988281 170.050781 174.066406 170.175781 L 174.300781 170.554688 L 174.777344 171.304688 C 174.949219 171.546875 175.140625 171.777344 175.324219 172.011719 C 175.671875 172.5 176.117188 172.90625 176.527344 173.34375 C 176.742188 173.554688 176.980469 173.738281 177.207031 173.933594 L 177.550781 174.226562 C 177.667969 174.320312 177.796875 174.398438 177.917969 174.488281 C 179.871094 175.90625 182.175781 176.742188 184.492188 177.15625 C 186.191406 177.457031 187.914062 177.523438 189.609375 177.378906 C 190.457031 177.320312 191.296875 177.199219 192.132812 177.046875 C 192.167969 177.039062 192.15625 177.042969 192.160156 177.039062 L 192.171875 177.027344 L 192.210938 177.003906 C 192.21875 177.003906 192.21875 177.015625 192.222656 177.035156 L 192.21875 177.050781 C 192.222656 177.054688 192.199219 177.113281 192.1875 177.140625 L 191.902344 177.890625 C 191.507812 178.960938 191.160156 180.050781 190.863281 181.152344 C 190.273438 183.359375 189.886719 185.628906 189.78125 187.9375 C 189.683594 189.855469 189.847656 191.808594 190.332031 193.699219 C 190.574219 194.640625 190.894531 195.566406 191.292969 196.460938 C 191.695312 197.351562 192.175781 198.203125 192.722656 199.011719 C 192.953125 199.371094 193.222656 199.703125 193.480469 200.046875 C 193.757812 200.371094 194.019531 200.707031 194.320312 201.011719 C 194.894531 201.640625 195.53125 202.203125 196.1875 202.742188 C 197.511719 203.792969 198.957031 204.667969 200.464844 205.382812 C 203.375 206.757812 206.476562 207.554688 209.585938 208.027344 C 208.898438 208.1875 208.316406 208.347656 207.925781 208.457031 C 205.609375 208.984375 203.4375 210.03125 201.300781 211.132812 C 199.449219 212.09375 197.746094 213.394531 196.328125 214.964844 Z M 196.328125 214.964844 " fill-opacity="1" fill-rule="nonzero"/><g clip-path="url(#251c794cfe)"><path fill="#000000" d="M 90.945312 159.777344 C 91.730469 160.949219 92.472656 162.148438 93.320312 163.285156 C 94.09375 164.316406 94.75 165.417969 95.515625 166.457031 C 96.238281 167.441406 96.910156 168.457031 97.613281 169.457031 C 97.722656 169.613281 97.871094 169.75 98.007812 169.894531 C 98.054688 169.9375 98.15625 169.949219 98.347656 169.832031 C 98.527344 169.722656 98.488281 169.683594 98.476562 169.628906 C 98.238281 168.65625 97.621094 167.71875 97.429688 167.277344 C 97.019531 166.332031 96.433594 165.492188 96.007812 164.554688 C 95.269531 162.9375 94.121094 161.5625 93.230469 160.035156 C 92.824219 159.289062 92.304688 158.605469 91.847656 157.886719 C 91.046875 156.628906 90.253906 155.363281 89.332031 154.175781 C 89.175781 153.976562 89.007812 153.78125 88.820312 153.597656 C 88.769531 153.546875 88.675781 153.492188 88.449219 153.605469 C 88.199219 153.730469 88.230469 153.824219 88.226562 153.894531 C 88.203125 154.160156 88.871094 156.332031 89.296875 157.109375 C 89.796875 158.027344 90.359375 158.910156 90.945312 159.777344 Z M 90.945312 159.777344 " fill-opacity="1" fill-rule="nonzero"/></g><g clip-path="url(#e6d5a7931a)"><path fill="#000000" d="M 91.328125 172.128906 C 92.949219 172.851562 94.566406 173.582031 96.261719 174.15625 C 96.550781 174.253906 96.84375 174.335938 97.148438 174.394531 C 97.234375 174.414062 97.359375 174.40625 97.511719 174.144531 C 97.675781 173.855469 97.585938 173.78125 97.542969 173.707031 C 97.394531 173.429688 95.300781 171.71875 94.371094 171.222656 C 93.273438 170.640625 92.132812 170.136719 90.984375 169.660156 C 89.433594 169.015625 87.910156 168.316406 86.320312 167.746094 C 84.878906 167.226562 83.5 166.566406 82.0625 166.035156 C 80.699219 165.535156 79.367188 164.96875 78.015625 164.441406 C 77.800781 164.355469 77.5625 164.316406 77.332031 164.265625 C 77.257812 164.25 77.152344 164.308594 77.035156 164.550781 C 76.929688 164.777344 76.996094 164.789062 77.042969 164.835938 C 77.917969 165.640625 79.144531 166.167969 79.628906 166.480469 C 80.652344 167.144531 81.785156 167.597656 82.824219 168.246094 C 84.617188 169.363281 86.660156 169.976562 88.546875 170.90625 C 89.441406 171.378906 90.402344 171.714844 91.328125 172.128906 Z M 91.328125 172.128906 " fill-opacity="1" fill-rule="nonzero"/></g><g clip-path="url(#ae474fae00)"><path fill="#000000" d="M 226.636719 226.695312 C 225.621094 226.027344 224.296875 225.707031 223.753906 225.472656 C 222.609375 224.976562 221.390625 224.710938 220.234375 224.234375 C 218.238281 223.410156 216.078125 223.136719 214.019531 222.515625 C 213.035156 222.195312 212.011719 222.015625 211.011719 221.757812 C 209.253906 221.300781 207.5 220.839844 205.695312 220.546875 C 205.390625 220.496094 205.078125 220.460938 204.761719 220.453125 C 204.675781 220.453125 204.546875 220.480469 204.441406 220.769531 C 204.320312 221.085938 204.425781 221.144531 204.480469 221.214844 C 204.679688 221.46875 207.074219 222.839844 208.097656 223.179688 C 209.304688 223.582031 210.535156 223.898438 211.773438 224.183594 C 213.445312 224.570312 215.097656 225.023438 216.796875 225.328125 C 218.335938 225.609375 219.835938 226.042969 221.375 226.332031 C 222.835938 226.609375 224.273438 226.953125 225.726562 227.257812 C 225.957031 227.304688 226.199219 227.304688 226.441406 227.316406 C 226.519531 227.320312 226.617188 227.242188 226.691406 226.980469 C 226.761719 226.734375 226.691406 226.730469 226.636719 226.695312 Z M 226.636719 226.695312 " fill-opacity="1" fill-rule="nonzero"/></g><g clip-path="url(#a25d1e6ee6)"><path fill="#000000" d="M 191.070312 256.757812 C 190.792969 255.886719 190.296875 255.121094 190 254.261719 C 189.480469 252.769531 188.464844 251.53125 187.761719 250.136719 C 187.445312 249.453125 187 248.835938 186.625 248.179688 C 185.972656 247.035156 185.324219 245.882812 184.519531 244.8125 C 184.386719 244.628906 184.238281 244.453125 184.0625 244.292969 C 184.015625 244.246094 183.925781 244.199219 183.652344 244.324219 C 183.351562 244.457031 183.367188 244.546875 183.347656 244.613281 C 183.269531 244.867188 183.613281 246.886719 183.9375 247.601562 C 184.320312 248.445312 184.78125 249.246094 185.269531 250.035156 C 185.925781 251.097656 186.527344 252.191406 187.257812 253.21875 C 187.921875 254.152344 188.445312 255.160156 189.101562 256.097656 C 189.71875 256.988281 190.277344 257.914062 190.871094 258.816406 C 190.964844 258.960938 191.101562 259.082031 191.230469 259.207031 C 191.273438 259.25 191.382812 259.25 191.617188 259.128906 C 191.835938 259.015625 191.800781 258.976562 191.796875 258.929688 C 191.714844 258.019531 191.203125 257.167969 191.070312 256.757812 Z M 191.070312 256.757812 " fill-opacity="1" fill-rule="nonzero"/></g><g clip-path="url(#9a2c11ce1b)"><path fill="#ff3131" d="M 361.855469 -128.859375 C 334.921875 -109.207031 298.46875 -103.308594 266.710938 -113.460938 C 250.371094 -118.6875 235.578125 -127.753906 220.132812 -135.21875 C 204.683594 -142.679688 187.785156 -148.667969 170.707031 -147.027344 C 153.949219 -145.417969 138.847656 -136.683594 124.164062 -128.449219 C 109.476562 -120.214844 93.871094 -112.085938 77.035156 -111.878906 C 65.914062 -111.742188 55.023438 -115.121094 44.820312 -119.539062 C 34.613281 -123.960938 24.894531 -129.445312 14.691406 -133.867188 C -2.128906 -141.152344 -20.910156 -145.503906 -38.851562 -141.753906 C -47.824219 -139.875 -56.433594 -135.945312 -63.355469 -129.9375 C -70.277344 -123.933594 -75.449219 -115.800781 -77.390625 -106.84375 C -79.925781 -95.140625 -76.945312 -83 -73.546875 -71.515625 C -70.152344 -60.03125 -66.28125 -48.339844 -67.042969 -36.386719 C -67.566406 -28.160156 -70.292969 -20.1875 -74.113281 -12.882812 C -77.929688 -5.578125 -82.828125 1.105469 -87.921875 7.585938 C -98.109375 20.542969 -109.410156 33.203125 -114.828125 48.773438 C -120.78125 65.878906 -118.921875 84.945312 -113.046875 102.074219 C -107.171875 119.207031 -97.511719 134.753906 -87.710938 149.988281 C -81.371094 159.847656 -74.90625 169.691406 -70.027344 180.351562 C -65.148438 191.011719 -61.871094 202.621094 -62.285156 214.335938 C -62.632812 224.253906 -65.605469 233.921875 -69.570312 243.019531 C -73.53125 252.117188 -78.488281 260.742188 -83.054688 269.550781 C -87.625 278.363281 -91.839844 287.445312 -94.175781 297.089844 C -96.515625 306.734375 -96.898438 317.035156 -93.867188 326.484375 C -91.359375 334.296875 -86.566406 341.300781 -80.46875 346.789062 C -74.371094 352.273438 -67 356.269531 -59.191406 358.785156 C -43.578125 363.824219 -26.589844 362.957031 -10.542969 359.554688 C 5.507812 356.148438 20.914062 350.300781 36.570312 345.398438 C 52.226562 340.496094 68.429688 336.5 84.828125 336.976562 C 110.355469 337.71875 134.15625 349.132812 157.660156 359.121094 C 169.410156 364.113281 181.347656 368.816406 193.777344 371.734375 C 206.210938 374.648438 219.214844 375.734375 231.777344 373.449219 C 251.292969 369.902344 268.363281 358.601562 285.117188 347.984375 C 301.871094 337.371094 319.730469 326.921875 339.511719 325.445312 C 358.027344 324.066406 376.066406 330.699219 393.761719 336.316406 C 402.613281 339.128906 411.574219 341.714844 420.777344 342.949219 C 429.980469 344.183594 439.472656 344.035156 448.386719 341.433594 C 458.421875 338.507812 467.476562 332.492188 474.398438 324.660156 C 481.324219 316.824219 486.140625 307.214844 488.710938 297.078125 C 493.84375 276.804688 489.914062 254.980469 480.980469 236.070312 C 476.371094 226.308594 470.488281 217.207031 465.386719 207.695312 C 460.289062 198.179688 455.917969 188.058594 454.699219 177.332031 C 453.398438 165.890625 455.757812 154.277344 459.804688 143.496094 C 463.855469 132.714844 469.550781 122.644531 475.175781 112.597656 C 480.800781 102.550781 486.402344 92.421875 490.246094 81.566406 C 494.085938 70.710938 496.121094 59.007812 494.386719 47.625 C 491.976562 31.824219 482.65625 18.0625 473.507812 4.960938 C 464.355469 -8.140625 454.886719 -21.75 452.105469 -37.484375 C 449.96875 -49.558594 451.960938 -61.9375 453.835938 -74.054688 C 455.714844 -86.171875 457.476562 -98.625 454.894531 -110.613281 C 452.789062 -120.40625 447.753906 -129.550781 440.605469 -136.570312 C 433.453125 -143.589844 424.21875 -148.457031 414.386719 -150.386719 C 404.554688 -152.3125 394.164062 -151.296875 384.894531 -147.496094 C 375.625 -143.699219 367.507812 -137.132812 361.855469 -128.859375 Z M 361.855469 -128.859375 " fill-opacity="1" fill-rule="nonzero"/></g></svg>