<svg xmlns="http://www.w3.org/2000/svg" xmlns:xlink="http://www.w3.org/1999/xlink" width="500" zoomAndPan="magnify" viewBox="0 0 375 262.499992" height="350" preserveAspectRatio="xMidYMid meet" version="1.0"><defs><clipPath id="1e1c10343e"><path d="M 149.347656 104.558594 L 272 104.558594 L 272 209.359375 L 149.347656 209.359375 Z M 149.347656 104.558594 " clip-rule="nonzero"/></clipPath><clipPath id="bb13392823"><path d="M 49 12 L 326.628906 12 L 326.628906 249.851562 L 49 249.851562 Z M 49 12 " clip-rule="nonzero"/></clipPath></defs><g clip-path="url(#1e1c10343e)"><path fill="#ffb380" d="M 245.445312 109.253906 C 240.082031 113.15625 232.824219 114.328125 226.503906 112.3125 C 223.25 111.273438 220.304688 109.472656 217.226562 107.992188 C 214.152344 106.507812 210.789062 105.316406 207.386719 105.644531 C 204.050781 105.964844 201.046875 107.699219 198.121094 109.335938 C 195.199219 110.972656 192.089844 112.585938 188.738281 112.628906 C 186.523438 112.652344 184.355469 111.984375 182.324219 111.105469 C 180.292969 110.226562 178.359375 109.136719 176.328125 108.257812 C 172.976562 106.8125 169.238281 105.945312 165.667969 106.691406 C 163.878906 107.066406 162.167969 107.84375 160.789062 109.039062 C 159.410156 110.234375 158.382812 111.847656 157.996094 113.628906 C 157.488281 115.953125 158.082031 118.363281 158.757812 120.644531 C 159.433594 122.929688 160.207031 125.25 160.054688 127.625 C 159.949219 129.257812 159.40625 130.84375 158.648438 132.296875 C 157.886719 133.746094 156.910156 135.074219 155.898438 136.363281 C 153.867188 138.9375 151.621094 141.453125 150.539062 144.542969 C 149.355469 147.941406 149.726562 151.730469 150.894531 155.132812 C 152.066406 158.539062 153.988281 161.628906 155.9375 164.652344 C 157.203125 166.613281 158.488281 168.570312 159.460938 170.6875 C 160.433594 172.804688 161.082031 175.109375 161 177.4375 C 160.933594 179.410156 160.339844 181.328125 159.550781 183.136719 C 158.761719 184.945312 157.777344 186.65625 156.867188 188.40625 C 155.957031 190.160156 155.117188 191.960938 154.652344 193.878906 C 154.1875 195.796875 154.109375 197.84375 154.714844 199.71875 C 155.214844 201.269531 156.167969 202.664062 157.382812 203.753906 C 158.59375 204.84375 160.0625 205.636719 161.617188 206.136719 C 164.726562 207.136719 168.109375 206.964844 171.304688 206.289062 C 174.5 205.613281 177.566406 204.449219 180.683594 203.476562 C 183.800781 202.503906 187.027344 201.707031 190.289062 201.804688 C 195.371094 201.949219 200.109375 204.21875 204.789062 206.203125 C 207.128906 207.195312 209.507812 208.128906 211.980469 208.707031 C 214.457031 209.289062 217.046875 209.503906 219.546875 209.050781 C 223.433594 208.34375 226.832031 206.101562 230.167969 203.992188 C 233.503906 201.882812 237.058594 199.804688 240.996094 199.511719 C 244.683594 199.238281 248.273438 200.554688 251.796875 201.671875 C 253.558594 202.230469 255.34375 202.746094 257.175781 202.988281 C 259.007812 203.234375 260.898438 203.207031 262.671875 202.6875 C 264.671875 202.105469 266.472656 200.914062 267.851562 199.355469 C 269.230469 197.800781 270.1875 195.890625 270.699219 193.875 C 271.722656 189.847656 270.941406 185.511719 269.160156 181.757812 C 268.242188 179.816406 267.074219 178.007812 266.058594 176.117188 C 265.042969 174.226562 264.171875 172.21875 263.929688 170.085938 C 263.671875 167.8125 264.140625 165.503906 264.945312 163.363281 C 265.75 161.222656 266.886719 159.222656 268.003906 157.226562 C 269.125 155.230469 270.242188 153.214844 271.007812 151.058594 C 271.769531 148.902344 272.175781 146.578125 271.832031 144.316406 C 271.351562 141.175781 269.496094 138.445312 267.675781 135.839844 C 265.851562 133.238281 263.964844 130.535156 263.414062 127.40625 C 262.988281 125.007812 263.382812 122.550781 263.757812 120.140625 C 264.132812 117.734375 264.480469 115.261719 263.96875 112.878906 C 263.546875 110.933594 262.546875 109.117188 261.121094 107.722656 C 259.699219 106.328125 257.859375 105.359375 255.902344 104.976562 C 253.945312 104.59375 251.878906 104.796875 250.03125 105.550781 C 248.1875 106.304688 246.570312 107.609375 245.445312 109.253906 Z M 245.445312 109.253906 " fill-opacity="1" fill-rule="nonzero"/></g><g clip-path="url(#bb13392823)"><path fill="#ff5757" d="M 266.296875 22.488281 C 254.125 31.371094 237.648438 34.035156 223.296875 29.445312 C 215.914062 27.085938 209.230469 22.988281 202.25 19.617188 C 195.265625 16.242188 187.628906 13.535156 179.914062 14.277344 C 172.339844 15.003906 165.515625 18.953125 158.878906 22.675781 C 152.242188 26.394531 145.1875 30.070312 137.582031 30.164062 C 132.554688 30.222656 127.632812 28.699219 123.019531 26.699219 C 118.410156 24.703125 114.019531 22.222656 109.40625 20.226562 C 101.804688 16.933594 93.316406 14.964844 85.207031 16.664062 C 81.152344 17.511719 77.265625 19.285156 74.136719 22 C 71.007812 24.714844 68.671875 28.390625 67.792969 32.4375 C 66.644531 37.726562 67.996094 43.214844 69.53125 48.402344 C 71.0625 53.59375 72.8125 58.878906 72.46875 64.277344 C 72.234375 67.996094 71 71.601562 69.273438 74.902344 C 67.546875 78.203125 65.335938 81.222656 63.035156 84.152344 C 58.429688 90.007812 53.324219 95.730469 50.875 102.765625 C 48.183594 110.496094 49.023438 119.109375 51.679688 126.851562 C 54.335938 134.59375 58.699219 141.621094 63.128906 148.503906 C 65.996094 152.960938 68.914062 157.410156 71.121094 162.226562 C 73.324219 167.046875 74.804688 172.289062 74.621094 177.585938 C 74.460938 182.066406 73.117188 186.4375 71.328125 190.546875 C 69.535156 194.660156 67.296875 198.558594 65.230469 202.539062 C 63.167969 206.519531 61.261719 210.625 60.207031 214.984375 C 59.148438 219.339844 58.976562 223.996094 60.347656 228.269531 C 61.480469 231.796875 63.644531 234.964844 66.402344 237.441406 C 69.15625 239.921875 72.488281 241.726562 76.015625 242.867188 C 83.074219 245.140625 90.75 244.75 98.003906 243.210938 C 105.253906 241.671875 112.21875 239.03125 119.292969 236.816406 C 126.371094 234.601562 133.691406 232.792969 141.101562 233.007812 C 152.636719 233.34375 163.394531 238.503906 174.015625 243.015625 C 179.328125 245.273438 184.722656 247.398438 190.339844 248.714844 C 195.957031 250.03125 201.835938 250.523438 207.511719 249.492188 C 216.332031 247.886719 224.042969 242.78125 231.617188 237.984375 C 239.1875 233.1875 247.257812 228.464844 256.199219 227.796875 C 264.566406 227.175781 272.71875 230.171875 280.714844 232.710938 C 284.714844 233.980469 288.765625 235.148438 292.925781 235.707031 C 297.082031 236.265625 301.371094 236.199219 305.402344 235.023438 C 309.9375 233.699219 314.027344 230.984375 317.15625 227.441406 C 320.285156 223.902344 322.464844 219.558594 323.625 214.976562 C 325.945312 205.816406 324.167969 195.953125 320.132812 187.40625 C 318.046875 182.996094 315.390625 178.882812 313.085938 174.582031 C 310.78125 170.285156 308.804688 165.710938 308.253906 160.863281 C 307.664062 155.691406 308.734375 150.441406 310.5625 145.570312 C 312.390625 140.699219 314.964844 136.148438 317.507812 131.609375 C 320.050781 127.066406 322.582031 122.488281 324.316406 117.582031 C 326.054688 112.679688 326.972656 107.390625 326.1875 102.246094 C 325.101562 95.105469 320.890625 88.886719 316.753906 82.964844 C 312.617188 77.042969 308.339844 70.894531 307.082031 63.78125 C 306.117188 58.324219 307.015625 52.730469 307.863281 47.253906 C 308.714844 41.78125 309.507812 36.152344 308.34375 30.734375 C 307.390625 26.308594 305.117188 22.175781 301.882812 19.003906 C 298.652344 15.832031 294.480469 13.632812 290.035156 12.761719 C 285.59375 11.890625 280.898438 12.347656 276.707031 14.066406 C 272.519531 15.78125 268.851562 18.75 266.296875 22.488281 Z M 266.296875 22.488281 " fill-opacity="1" fill-rule="nonzero"/></g></svg>