{
	"asset":{
		"generator":"Khronos glTF Blender I/O v4.3.47",
		"version":"2.0"
	},
	"scene":0,
	"scenes":[
		{
			"name":"Scene",
			"nodes":[
				0
			]
		}
	],
	"nodes":[
		{
			"mesh":0,
			"name":"B\u00e9zierCurve",
			"translation":[
				0,
				3.884086847305298,
				0
			]
		}
	],
	"materials":[
		{
			"doubleSided":true,
			"name":"Material.001",
			"pbrMetallicRoughness":{
				"baseColorFactor":[
					0.8008280992507935,
					0.7803937196731567,
					0.7803937196731567,
					1
				],
				"metallicFactor":0.16535434126853943,
				"roughnessFactor":0.35826772451400757
			}
		}
	],
	"meshes":[
		{
			"name":"B\u00e9zierCurve",
			"primitives":[
				{
					"attributes":{
						"POSITION":0,
						"NORMAL":1,
						"TEXCOORD_0":2
					},
					"indices":3,
					"material":0
				}
			]
		}
	],
	"accessors":[
		{
			"bufferView":0,
			"componentType":5126,
			"count":3910,
			"max":[
				1.1858935356140137,
				0.28165191411972046,
				1.1858935356140137
			],
			"min":[
				-1.1858935356140137,
				-3.7627146244049072,
				-1.1858935356140137
			],
			"type":"VEC3"
		},
		{
			"bufferView":1,
			"componentType":5126,
			"count":3910,
			"type":"VEC3"
		},
		{
			"bufferView":2,
			"componentType":5126,
			"count":3910,
			"type":"VEC2"
		},
		{
			"bufferView":3,
			"componentType":5123,
			"count":21984,
			"type":"SCALAR"
		}
	],
	"bufferViews":[
		{
			"buffer":0,
			"byteLength":46920,
			"byteOffset":0,
			"target":34962
		},
		{
			"buffer":0,
			"byteLength":46920,
			"byteOffset":46920,
			"target":34962
		},
		{
			"buffer":0,
			"byteLength":31280,
			"byteOffset":93840,
			"target":34962
		},
		{
			"buffer":0,
			"byteLength":43968,
			"byteOffset":125120,
			"target":34963
		}
	],
	"buffers":[
		{
			"byteLength":169088,
			"uri":"chess%20piece.bin"
		}
	]
}
