<svg xmlns="http://www.w3.org/2000/svg" xmlns:xlink="http://www.w3.org/1999/xlink" width="500" zoomAndPan="magnify" viewBox="0 0 375 374.999991" height="500" preserveAspectRatio="xMidYMid meet" version="1.0"><defs><clipPath id="8fc373128f"><path d="M 143 269 L 214 269 L 214 354 L 143 354 Z M 143 269 " clip-rule="nonzero"/></clipPath><clipPath id="a95ca9d3ee"><path d="M 204.125 227.960938 L 244.121094 251.675781 L 181.003906 358.121094 L 141.007812 334.402344 Z M 204.125 227.960938 " clip-rule="nonzero"/></clipPath><clipPath id="d515689fdc"><path d="M 204.125 227.960938 L 244.121094 251.675781 L 181.003906 358.121094 L 141.007812 334.402344 Z M 204.125 227.960938 " clip-rule="nonzero"/></clipPath><clipPath id="04422602db"><path d="M 196 238 L 228 238 L 228 280 L 196 280 Z M 196 238 " clip-rule="nonzero"/></clipPath><clipPath id="f5a36754cd"><path d="M 204.125 227.960938 L 244.121094 251.675781 L 181.003906 358.121094 L 141.007812 334.402344 Z M 204.125 227.960938 " clip-rule="nonzero"/></clipPath><clipPath id="8aabb5fa85"><path d="M 204.125 227.960938 L 244.121094 251.675781 L 181.003906 358.121094 L 141.007812 334.402344 Z M 204.125 227.960938 " clip-rule="nonzero"/></clipPath><clipPath id="b0b83347bc"><path d="M 0 8 L 32 8 L 32 127 L 0 127 Z M 0 8 " clip-rule="nonzero"/></clipPath><clipPath id="1efad2096d"><path d="M -102.308594 -80.3125 L 325.464844 35.804688 L 248.445312 319.539062 L -179.324219 203.421875 Z M -102.308594 -80.3125 " clip-rule="nonzero"/></clipPath><clipPath id="10f67924a1"><path d="M -102.308594 -80.3125 L 325.464844 35.804688 L 248.445312 319.539062 L -179.324219 203.421875 Z M -102.308594 -80.3125 " clip-rule="nonzero"/></clipPath><clipPath id="aac7ff5ce5"><path d="M 1 0 L 67 0 L 67 24 L 1 24 Z M 1 0 " clip-rule="nonzero"/></clipPath><clipPath id="4bb496322c"><path d="M -102.308594 -80.3125 L 325.464844 35.804688 L 248.445312 319.539062 L -179.324219 203.421875 Z M -102.308594 -80.3125 " clip-rule="nonzero"/></clipPath><clipPath id="0655f78e6b"><path d="M -102.308594 -80.3125 L 325.464844 35.804688 L 248.445312 319.539062 L -179.324219 203.421875 Z M -102.308594 -80.3125 " clip-rule="nonzero"/></clipPath><clipPath id="a3e02bc93a"><path d="M 65 0 L 175 0 L 175 47 L 65 47 Z M 65 0 " clip-rule="nonzero"/></clipPath><clipPath id="9b7c811402"><path d="M -102.308594 -80.3125 L 325.464844 35.804688 L 248.445312 319.539062 L -179.324219 203.421875 Z M -102.308594 -80.3125 " clip-rule="nonzero"/></clipPath><clipPath id="f8ae845cbe"><path d="M -102.308594 -80.3125 L 325.464844 35.804688 L 248.445312 319.539062 L -179.324219 203.421875 Z M -102.308594 -80.3125 " clip-rule="nonzero"/></clipPath><clipPath id="166a7ed631"><path d="M 173 4 L 239 4 L 239 70 L 173 70 Z M 173 4 " clip-rule="nonzero"/></clipPath><clipPath id="34ab76c95d"><path d="M -102.308594 -80.3125 L 325.464844 35.804688 L 248.445312 319.539062 L -179.324219 203.421875 Z M -102.308594 -80.3125 " clip-rule="nonzero"/></clipPath><clipPath id="7bfc186746"><path d="M -102.308594 -80.3125 L 325.464844 35.804688 L 248.445312 319.539062 L -179.324219 203.421875 Z M -102.308594 -80.3125 " clip-rule="nonzero"/></clipPath><clipPath id="0e87774c32"><path d="M 187 75 L 228 75 L 228 155 L 187 155 Z M 187 75 " clip-rule="nonzero"/></clipPath><clipPath id="15c4425ef6"><path d="M -102.308594 -80.3125 L 325.464844 35.804688 L 248.445312 319.539062 L -179.324219 203.421875 Z M -102.308594 -80.3125 " clip-rule="nonzero"/></clipPath><clipPath id="570e9a0995"><path d="M -102.308594 -80.3125 L 325.464844 35.804688 L 248.445312 319.539062 L -179.324219 203.421875 Z M -102.308594 -80.3125 " clip-rule="nonzero"/></clipPath><clipPath id="3e367a0440"><path d="M 143 161 L 271 161 L 271 253 L 143 253 Z M 143 161 " clip-rule="nonzero"/></clipPath><clipPath id="f6e3570abe"><path d="M -102.308594 -80.3125 L 325.464844 35.804688 L 248.445312 319.539062 L -179.324219 203.421875 Z M -102.308594 -80.3125 " clip-rule="nonzero"/></clipPath><clipPath id="c86787aeac"><path d="M -102.308594 -80.3125 L 325.464844 35.804688 L 248.445312 319.539062 L -179.324219 203.421875 Z M -102.308594 -80.3125 " clip-rule="nonzero"/></clipPath><clipPath id="8a688ac350"><path d="M 0 0 L 72.796875 0 L 72.796875 58 L 0 58 Z M 0 0 " clip-rule="nonzero"/></clipPath><clipPath id="97ba0f3fdc"><path d="M 305.246094 21 L 375 21 L 375 93.839844 L 305.246094 93.839844 Z M 305.246094 21 " clip-rule="nonzero"/></clipPath><clipPath id="efaa06e055"><path d="M 0 331 L 64.714844 331 L 64.714844 375 L 0 375 Z M 0 331 " clip-rule="nonzero"/></clipPath></defs><rect x="-37.5" width="450" fill="#ffffff" y="-37.499999" height="449.999989" fill-opacity="1"/><rect x="-37.5" width="450" fill="#ffecec" y="-37.499999" height="449.999989" fill-opacity="1"/><path fill="#ff5757" d="M -0.234375 -32.792969 C -35.101562 -19.367188 -54.140625 20.132812 -69.878906 56.28125 C -78.085938 75.121094 -86.113281 98.148438 -75.570312 115.589844 C -67.464844 128.992188 -51.164062 133.671875 -41.042969 145.375 C -27.285156 161.292969 -27.34375 187.128906 -13.472656 202.925781 C 0.351562 218.667969 23.519531 219.324219 43.089844 214.382812 C 62.664062 209.445312 81.519531 200.042969 101.613281 199.476562 C 122.609375 198.878906 142.886719 208.019531 163.867188 209.140625 C 184.84375 210.257812 209.667969 198.660156 212.1875 176.164062 C 214.109375 158.988281 202.300781 143.746094 198.84375 126.851562 C 194.847656 107.328125 202.238281 87.515625 206.925781 68.167969 C 211.613281 48.824219 212.675781 25.507812 199.320312 11.636719 C 180.34375 -8.070312 149.164062 5.457031 122.992188 2.253906 C 99.621094 -0.597656 80.054688 -17.347656 58.566406 -27.652344 C 37.078125 -37.960938 9.214844 -36.425781 -0.234375 -32.789062 Z M -0.234375 -32.792969 " fill-opacity="1" fill-rule="nonzero"/><g clip-path="url(#8fc373128f)"><g clip-path="url(#a95ca9d3ee)"><g clip-path="url(#d515689fdc)"><path fill="#4d3131" d="M 185.28125 346.375 C 185.804688 346.046875 186.21875 345.617188 186.53125 345.089844 C 187.769531 343 186.621094 340.742188 183.992188 338.3125 C 185.5 332.03125 194.621094 304.128906 205.019531 288.597656 C 208.574219 290.171875 211.304688 290.519531 212.621094 288.292969 C 212.6875 288.183594 212.742188 288.089844 212.800781 287.988281 C 212.890625 287.785156 212.964844 287.570312 213.023438 287.355469 C 213.339844 286.015625 212.675781 284.664062 211.332031 283.273438 C 212.21875 283.375 212.828125 283.25 213.050781 282.875 C 213.476562 282.15625 212.480469 280.707031 210.546875 278.980469 C 210.234375 279.238281 209.902344 279.472656 209.558594 279.6875 C 208.839844 280.0625 207.066406 279.535156 205.199219 278.71875 C 204.472656 278.410156 203.738281 278.054688 203.035156 277.6875 C 202.679688 277.523438 202.339844 277.335938 202.007812 277.128906 C 201.667969 276.9375 201.339844 276.726562 201.023438 276.496094 C 200.367188 276.054688 199.691406 275.574219 199.074219 275.085938 C 197.472656 273.839844 196.15625 272.542969 196.128906 271.726562 C 196.144531 271.3125 196.183594 270.902344 196.253906 270.496094 C 193.796875 269.632812 192.050781 269.46875 191.628906 270.179688 C 191.40625 270.554688 191.578125 271.140625 192.085938 271.878906 C 189.800781 271.25 188.046875 271.492188 187.066406 273.144531 C 185.765625 275.339844 187.324219 277.539062 190.335938 279.882812 C 190.378906 279.910156 190.414062 279.929688 190.449219 279.976562 C 189.414062 281.941406 188.210938 283.992188 186.914062 286.0625 C 177.238281 301.378906 161.148438 318.433594 156.90625 322.253906 C 153.503906 321.125 150.976562 321.199219 149.742188 323.277344 C 149.425781 323.804688 149.25 324.375 149.214844 324.988281 C 147.691406 324.753906 146.6875 324.894531 146.339844 325.476562 L 143.921875 329.558594 C 143.214844 330.75 145.300781 333.746094 149.253906 337.3125 C 150.996094 338.878906 152.820312 340.34375 154.726562 341.710938 C 156.683594 343.136719 158.84375 344.5625 161.167969 345.941406 C 164.308594 347.8125 167.5625 349.464844 170.929688 350.890625 C 177.71875 353.753906 182.941406 354.667969 183.808594 353.207031 L 186.226562 349.125 C 186.5625 348.550781 186.210938 347.589844 185.28125 346.375 Z M 192.207031 272.042969 C 193.554688 273.859375 196.8125 276.484375 200.902344 278.910156 C 202.457031 279.839844 204.054688 280.683594 205.703125 281.441406 C 207.886719 282.4375 209.78125 283.070312 211.117188 283.242188 C 209.507812 283.730469 205.171875 282.253906 200.5625 279.515625 C 195.949219 276.78125 192.582031 273.695312 192.207031 272.042969 Z M 155.28125 324.574219 C 155.28125 324.660156 155.292969 324.746094 155.308594 324.832031 C 155.3125 324.90625 155.324219 324.976562 155.347656 325.050781 C 155.492188 325.726562 155.90625 326.496094 156.578125 327.367188 C 156.652344 327.472656 156.738281 327.570312 156.820312 327.679688 C 156.902344 327.785156 157.019531 327.910156 157.117188 328.027344 C 157.519531 328.484375 157.972656 328.960938 158.507812 329.445312 C 158.742188 329.667969 158.992188 329.902344 159.253906 330.128906 C 160.828125 331.488281 162.480469 332.738281 164.214844 333.882812 C 164.660156 334.179688 165.132812 334.484375 165.625 334.804688 C 165.785156 334.933594 165.953125 335.054688 166.128906 335.160156 C 166.488281 335.375 166.835938 335.582031 167.179688 335.785156 C 167.523438 335.988281 167.871094 336.195312 168.226562 336.40625 C 168.414062 336.515625 168.609375 336.609375 168.808594 336.691406 L 169.484375 337.054688 C 169.621094 337.132812 169.753906 337.214844 169.898438 337.277344 C 171.078125 337.902344 172.179688 338.433594 173.214844 338.902344 L 173.730469 339.136719 L 174.34375 339.390625 C 174.515625 339.46875 174.703125 339.539062 174.878906 339.609375 C 175.585938 339.894531 176.246094 340.144531 176.867188 340.34375 C 176.988281 340.386719 177.117188 340.425781 177.234375 340.460938 C 177.5 340.546875 177.753906 340.613281 177.992188 340.683594 C 178.164062 340.722656 178.320312 340.765625 178.488281 340.804688 C 178.902344 340.90625 179.292969 340.984375 179.660156 341.039062 L 179.671875 341.042969 L 179.835938 341.070312 C 180.039062 341.09375 180.246094 341.117188 180.429688 341.128906 C 180.539062 341.128906 180.65625 341.140625 180.746094 341.144531 C 180.949219 341.15625 181.144531 341.148438 181.335938 341.152344 C 181.820312 341.140625 182.289062 341.035156 182.734375 340.84375 C 182.269531 341.332031 181.472656 341.597656 180.34375 341.582031 C 177.910156 341.535156 173.9375 340.222656 168.453125 337.226562 C 168.257812 337.144531 168.066406 337.046875 167.886719 336.9375 L 165.832031 335.71875 C 165.652344 335.613281 165.476562 335.496094 165.316406 335.363281 C 164.832031 335.054688 164.375 334.746094 163.941406 334.453125 C 162.238281 333.328125 160.617188 332.09375 159.078125 330.757812 C 158.816406 330.542969 158.578125 330.3125 158.335938 330.085938 C 157.335938 329.1875 156.484375 328.164062 155.78125 327.019531 C 155.214844 326.035156 155.070312 325.210938 155.28125 324.574219 Z M 163.261719 342.410156 C 153.609375 336.6875 146.960938 329.566406 146.261719 326.519531 C 146.3125 326.726562 146.382812 326.925781 146.472656 327.121094 C 146.507812 327.199219 146.554688 327.289062 146.597656 327.375 C 146.667969 327.511719 146.734375 327.648438 146.824219 327.804688 C 146.878906 327.902344 146.945312 328.003906 147.007812 328.109375 C 147.105469 328.261719 147.210938 328.414062 147.324219 328.578125 C 147.398438 328.679688 147.46875 328.785156 147.550781 328.890625 C 147.671875 329.054688 147.804688 329.226562 147.945312 329.398438 C 148.015625 329.488281 148.070312 329.570312 148.144531 329.660156 L 148.253906 329.78125 L 148.347656 329.894531 L 148.808594 330.425781 C 149.085938 330.734375 149.398438 331.058594 149.722656 331.386719 L 149.917969 331.589844 L 150.480469 332.144531 L 150.859375 332.507812 L 151.242188 332.859375 C 152.113281 333.675781 153.089844 334.507812 154.152344 335.367188 L 155.144531 336.160156 L 155.160156 336.167969 C 155.5 336.433594 155.851562 336.699219 156.214844 336.964844 C 156.925781 337.496094 157.664062 338.023438 158.445312 338.566406 L 158.539062 338.621094 C 158.597656 338.65625 158.65625 338.691406 158.707031 338.734375 C 159.003906 338.941406 159.300781 339.144531 159.605469 339.34375 L 159.796875 339.476562 L 159.816406 339.488281 C 160.128906 339.695312 160.441406 339.90625 160.757812 340.109375 C 161.664062 340.703125 162.605469 341.285156 163.574219 341.863281 C 164.03125 342.132812 164.480469 342.398438 164.921875 342.660156 L 165.871094 343.1875 C 166.28125 343.429688 166.699219 343.644531 167.105469 343.859375 C 167.515625 344.074219 167.886719 344.261719 168.261719 344.460938 C 169.441406 345.074219 170.578125 345.613281 171.648438 346.089844 C 172.015625 346.25 172.375 346.414062 172.734375 346.566406 C 172.957031 346.660156 173.179688 346.757812 173.394531 346.847656 C 173.898438 347.0625 174.386719 347.253906 174.871094 347.441406 C 175.910156 347.851562 176.894531 348.207031 177.832031 348.511719 L 178.175781 348.617188 L 178.777344 348.808594 L 179.230469 348.941406 L 179.84375 349.109375 L 180.132812 349.1875 C 180.457031 349.269531 180.765625 349.34375 181.066406 349.410156 C 181.4375 349.492188 181.796875 349.566406 182.128906 349.617188 L 182.238281 349.640625 C 182.609375 349.699219 182.953125 349.742188 183.277344 349.769531 C 183.664062 349.808594 184.050781 349.824219 184.441406 349.8125 L 184.507812 349.808594 C 184.683594 349.796875 184.855469 349.777344 185.03125 349.75 C 185.128906 349.734375 185.226562 349.714844 185.3125 349.691406 C 183.113281 350.417969 176.269531 350.105469 163.265625 342.398438 Z M 163.261719 342.410156 " fill-opacity="1" fill-rule="nonzero"/></g></g></g><g clip-path="url(#04422602db)"><g clip-path="url(#f5a36754cd)"><g clip-path="url(#8aabb5fa85)"><path fill="#4d3131" d="M 196.238281 270.945312 C 196.234375 271.039062 196.222656 271.113281 196.21875 271.1875 C 196.210938 271.257812 196.214844 271.316406 196.210938 271.363281 C 196.21875 271.53125 196.265625 271.6875 196.34375 271.832031 C 196.371094 271.898438 196.398438 271.960938 196.4375 272.019531 C 196.546875 272.207031 196.667969 272.382812 196.804688 272.550781 C 196.882812 272.652344 196.96875 272.746094 197.058594 272.835938 C 197.28125 273.085938 197.515625 273.324219 197.761719 273.550781 C 197.886719 273.671875 198.019531 273.785156 198.164062 273.910156 C 198.308594 274.035156 198.410156 274.128906 198.542969 274.230469 C 198.710938 274.378906 198.902344 274.527344 199.085938 274.671875 L 199.726562 275.164062 L 199.773438 275.191406 C 200.230469 275.535156 200.703125 275.863281 201.164062 276.171875 C 201.480469 276.40625 201.8125 276.617188 202.15625 276.808594 C 202.488281 277.019531 202.835938 277.207031 203.191406 277.375 C 203.507812 277.539062 203.820312 277.703125 204.152344 277.859375 C 204.324219 277.9375 204.480469 278.019531 204.644531 278.089844 C 204.972656 278.25 205.300781 278.394531 205.632812 278.53125 L 205.867188 278.632812 C 206.402344 278.859375 206.949219 279.058594 207.503906 279.226562 C 207.636719 279.273438 207.773438 279.308594 207.910156 279.335938 C 208.269531 279.441406 208.636719 279.503906 209.011719 279.527344 C 209.109375 279.535156 209.210938 279.535156 209.308594 279.523438 C 209.476562 279.527344 209.636719 279.492188 209.785156 279.417969 C 210.027344 279.273438 210.261719 279.117188 210.480469 278.9375 C 210.5 278.941406 210.515625 278.953125 210.527344 278.964844 C 211.589844 278.128906 213.28125 276.683594 215.058594 275.121094 C 215.261719 274.945312 215.472656 274.75 215.6875 274.5625 C 215.902344 274.375 216.0625 274.238281 216.253906 274.074219 C 216.121094 274.179688 215.996094 274.285156 215.875 274.394531 C 216.003906 274.277344 216.128906 274.171875 216.265625 274.058594 C 216.453125 273.890625 216.648438 273.714844 216.84375 273.550781 C 219.644531 271.078125 222.25 268.683594 222.488281 268.289062 C 222.511719 268.25 222.519531 268.207031 222.515625 268.160156 C 222.523438 268.121094 222.519531 268.082031 222.507812 268.046875 C 222.464844 267.851562 222.386719 267.667969 222.28125 267.5 C 222.246094 267.429688 222.207031 267.359375 222.160156 267.296875 C 221.949219 266.964844 221.714844 266.648438 221.460938 266.347656 C 221.390625 266.257812 221.308594 266.171875 221.234375 266.078125 C 221.074219 265.898438 220.902344 265.699219 220.714844 265.503906 C 220.347656 265.105469 219.925781 264.683594 219.457031 264.25 C 219.242188 264.039062 219.015625 263.832031 218.765625 263.621094 C 218.742188 263.617188 218.722656 263.605469 218.707031 263.589844 C 218.457031 263.367188 218.183594 263.144531 217.921875 262.914062 C 217.25 262.347656 216.515625 261.785156 215.722656 261.226562 C 215.992188 260.972656 216.21875 260.683594 216.40625 260.363281 C 216.589844 260.042969 216.726562 259.703125 216.8125 259.34375 C 216.894531 258.984375 216.925781 258.621094 216.90625 258.25 C 216.882812 257.882812 216.804688 257.523438 216.679688 257.175781 L 219.5 251.769531 C 219.5 251.769531 222.886719 254.597656 223.519531 255.042969 C 224.15625 255.488281 227.644531 250.480469 227.628906 249.878906 C 227.625 249.742188 227.359375 249.535156 226.929688 249.296875 C 225.492188 248.46875 222.324219 247.253906 222.324219 247.253906 C 222.324219 247.253906 227.15625 243.398438 227.117188 242.644531 C 227.089844 242.113281 226.011719 241.132812 224.871094 240.320312 C 224.621094 240.148438 224.375 239.96875 224.140625 239.828125 L 224.078125 239.789062 C 223.828125 239.640625 223.550781 239.515625 223.28125 239.378906 C 222.015625 238.761719 220.644531 238.289062 220.164062 238.523438 C 219.480469 238.84375 218.410156 244.9375 218.410156 244.9375 C 218.410156 244.9375 214.101562 241.269531 213.5625 241.542969 C 213.023438 241.816406 210.304688 247.285156 211 247.625 C 211.699219 247.96875 215.800781 249.582031 215.800781 249.582031 L 212.441406 254.65625 C 211.875 254.742188 211.355469 254.949219 210.878906 255.269531 C 210.402344 255.59375 210.019531 256 209.726562 256.496094 C 209.554688 256.796875 209.421875 257.113281 209.335938 257.449219 L 209.324219 257.441406 C 204.550781 255.109375 200.25 254.246094 199.867188 254.890625 C 199.625 255.300781 198.722656 259.007812 197.851562 262.796875 C 197.792969 263.042969 197.738281 263.277344 197.6875 263.523438 C 197.082031 266.234375 196.511719 268.933594 196.253906 270.496094 C 196.269531 270.503906 196.28125 270.511719 196.296875 270.519531 C 196.277344 270.675781 196.261719 270.824219 196.238281 270.945312 Z M 213.851562 242.695312 C 213.433594 242.742188 212.515625 244.742188 212.515625 244.742188 C 212.515625 244.742188 213.351562 242.0625 213.796875 242.132812 C 214.238281 242.199219 216.605469 244.183594 216.605469 244.183594 C 216.605469 244.183594 214.261719 242.636719 213.851562 242.695312 Z M 220.722656 239.460938 C 220.578125 239.546875 219.757812 241.808594 219.660156 242.070312 C 219.703125 241.777344 220.050781 239.21875 220.472656 239.007812 C 220.890625 238.796875 222.957031 239.683594 223.570312 240.121094 C 222.472656 239.699219 220.890625 239.367188 220.722656 239.460938 Z M 200.621094 257.117188 C 200.558594 257.019531 200.507812 256.914062 200.464844 256.808594 C 203.65625 262.324219 214.511719 268.625 220.621094 268.722656 C 214.222656 269.570312 203.503906 262.839844 200.621094 257.117188 Z M 200.621094 257.117188 " fill-opacity="1" fill-rule="nonzero"/></g></g></g><g clip-path="url(#b0b83347bc)"><g clip-path="url(#1efad2096d)"><g clip-path="url(#10f67924a1)"><path fill="#4d3131" d="M 22.832031 32.410156 C 9.90625 28.902344 -0.0664062 19.863281 -5.226562 8.53125 L -80.460938 108.132812 C -76.007812 108.445312 -71.503906 109.183594 -67.03125 110.398438 C -55.828125 113.4375 -46.003906 119.070312 -38.03125 126.488281 L 31.929688 33.859375 C 28.910156 33.699219 25.863281 33.230469 22.832031 32.410156 Z M 22.832031 32.410156 " fill-opacity="1" fill-rule="evenodd"/></g></g></g><g clip-path="url(#aac7ff5ce5)"><g clip-path="url(#4bb496322c)"><g clip-path="url(#0655f78e6b)"><path fill="#4d3131" d="M 42.738281 -40.925781 C 25.34375 -45.648438 7.355469 -35.328125 2.636719 -17.945312 C -2.082031 -0.5625 8.234375 17.4375 25.617188 22.15625 C 43 26.875 61 16.558594 65.71875 -0.824219 C 70.4375 -18.207031 60.132812 -36.203125 42.738281 -40.925781 Z M 42.738281 -40.925781 " fill-opacity="1" fill-rule="evenodd"/></g></g></g><g clip-path="url(#a3e02bc93a)"><g clip-path="url(#9b7c811402)"><g clip-path="url(#f8ae845cbe)"><path fill="#4d3131" d="M 163.921875 46.636719 C 162.460938 40.019531 162.515625 32.957031 164.410156 25.980469 C 166.304688 18.992188 169.8125 12.882812 174.429688 7.914062 L 76.441406 -18.683594 C 77.902344 -12.066406 77.847656 -5.007812 75.953125 1.96875 C 74.058594 8.960938 70.550781 15.070312 65.933594 20.039062 Z M 163.921875 46.636719 " fill-opacity="1" fill-rule="evenodd"/></g></g></g><g clip-path="url(#166a7ed631)"><g clip-path="url(#34ab76c95d)"><g clip-path="url(#7bfc186746)"><path fill="#4d3131" d="M 214.769531 5.773438 C 197.371094 1.050781 179.382812 11.367188 174.664062 28.75 C 169.945312 46.132812 180.261719 64.136719 197.644531 68.855469 C 215.027344 73.570312 233.027344 63.257812 237.746094 45.875 C 242.464844 28.492188 232.152344 10.492188 214.769531 5.773438 Z M 214.769531 5.773438 " fill-opacity="1" fill-rule="evenodd"/></g></g></g><g clip-path="url(#0e87774c32)"><g clip-path="url(#15c4425ef6)"><g clip-path="url(#570e9a0995)"><path fill="#4d3131" d="M 187.097656 154 C 193.554688 152.21875 200.285156 151.300781 207.175781 151.335938 C 214.054688 151.355469 220.773438 152.3125 227.226562 154.144531 L 227.492188 75.011719 C 217.914062 80.425781 206.292969 82.222656 194.871094 79.121094 C 192.25 78.410156 189.746094 77.46875 187.367188 76.328125 Z M 187.097656 154 " fill-opacity="1" fill-rule="evenodd"/></g></g></g><g clip-path="url(#3e367a0440)"><g clip-path="url(#f6e3570abe)"><g clip-path="url(#c86787aeac)"><path fill="#4d3131" d="M 223.679688 164.164062 C 218.363281 162.71875 212.804688 161.957031 207.136719 161.949219 C 199.132812 161.914062 191.339844 163.371094 184.085938 166.160156 C 183.835938 166.273438 183.585938 166.382812 183.3125 166.476562 C 175.480469 169.605469 168.285156 174.316406 162.128906 180.4375 C 152.15625 190.335938 145.875 203.007812 143.996094 217.050781 C 142.351562 229.253906 144.203125 241.382812 149.378906 252.402344 L 168.929688 241.15625 C 166.199219 234.496094 165.226562 227.15625 166.191406 219.996094 C 167.390625 211.152344 171.570312 202.765625 177.988281 196.398438 C 185.769531 188.675781 196.082031 184.425781 207.046875 184.476562 C 218.019531 184.503906 228.300781 188.8125 236.039062 196.59375 C 242.417969 203.019531 246.550781 211.421875 247.679688 220.28125 C 248.589844 227.441406 247.574219 234.792969 244.796875 241.417969 L 264.28125 252.777344 C 269.527344 241.785156 271.457031 229.6875 269.890625 217.46875 C 268.089844 203.421875 261.898438 190.71875 251.996094 180.746094 C 245.875 174.585938 238.722656 169.832031 230.921875 166.652344 C 230.65625 166.566406 230.382812 166.464844 230.136719 166.34375 C 228.042969 165.472656 225.878906 164.757812 223.679688 164.164062 Z M 223.679688 164.164062 " fill-opacity="1" fill-rule="evenodd"/></g></g></g><path fill="#ff5757" d="M 313.226562 -103.605469 C 272.980469 -88.113281 251.003906 -42.515625 232.835938 -0.796875 C 223.367188 20.949219 214.101562 47.53125 226.269531 67.660156 C 235.625 83.128906 254.441406 88.535156 266.121094 102.039062 C 282.003906 120.410156 281.9375 150.234375 297.945312 168.46875 C 313.902344 186.636719 340.640625 187.394531 363.230469 181.691406 C 385.820312 175.988281 407.589844 165.140625 430.78125 164.484375 C 455.015625 163.792969 478.417969 174.347656 502.632812 175.636719 C 526.847656 176.929688 555.5 163.542969 558.40625 137.578125 C 560.625 117.753906 546.996094 100.160156 543.007812 80.660156 C 538.394531 58.121094 546.921875 35.253906 552.335938 12.925781 C 557.746094 -9.402344 558.96875 -36.3125 543.554688 -52.324219 C 521.652344 -75.070312 485.664062 -59.460938 455.457031 -63.152344 C 428.480469 -66.445312 405.898438 -85.777344 381.09375 -97.675781 C 356.289062 -109.574219 324.128906 -107.800781 313.226562 -103.601562 Z M 313.226562 -103.605469 " fill-opacity="1" fill-rule="nonzero"/><g clip-path="url(#8a688ac350)"><path fill="#ad3f3f" d="M 30.144531 54.835938 C 25.800781 54.800781 21.023438 54.359375 16.578125 54.523438 C 11.855469 54.707031 7.339844 56.277344 2.703125 57.019531 C -5.46875 58.152344 -12.9375 52.699219 -17.296875 46.214844 C -20.507812 41.625 -21.699219 35.886719 -21.0625 30.332031 C -20.945312 28.476562 -20.183594 26.84375 -19.492188 25.191406 C -18.574219 22.976562 -17.546875 20.804688 -16.050781 18.902344 C -11.136719 12.941406 -4.183594 9.195312 1.683594 4.289062 C 2.257812 3.832031 2.652344 3.242188 2.992188 2.59375 C 4.820312 -1.175781 6.71875 -5.28125 10.738281 -7.140625 C 17.285156 -10.777344 25.871094 -9.726562 31.464844 -4.742188 C 32.859375 -3.472656 34.023438 -1.984375 35.4375 -0.742188 C 39.515625 3.039062 43.542969 7.640625 49.214844 8.84375 C 55.21875 9.363281 58.339844 4.902344 64.773438 6.929688 C 71 8.566406 73.105469 15.808594 72.832031 21.582031 C 72.371094 26.808594 70.273438 31.785156 67.464844 36.171875 C 58.351562 49.234375 45.988281 55.125 30.144531 54.835938 Z M 30.144531 54.835938 " fill-opacity="1" fill-rule="nonzero"/></g><g clip-path="url(#97ba0f3fdc)"><path fill="#ad3f3f" d="M 320.5 23.644531 C 330.671875 19.652344 342.285156 20.703125 352.554688 24.425781 C 356.648438 25.90625 360.585938 27.792969 364.675781 29.289062 C 368.761719 30.789062 373.066406 31.902344 377.417969 31.753906 C 381.835938 31.597656 386.105469 30.148438 390.203125 28.492188 C 394.304688 26.835938 398.332031 24.949219 402.613281 23.839844 C 407.660156 22.539062 413.046875 22.363281 418.0625 23.777344 C 423.078125 25.191406 427.683594 28.253906 430.578125 32.582031 C 433.308594 36.664062 434.449219 41.679688 437.398438 45.605469 C 440.621094 49.898438 445.636719 52.425781 449.535156 56.113281 C 451.484375 57.960938 453.183594 60.152344 454.023438 62.699219 C 454.445312 63.976562 454.644531 65.328125 454.546875 66.667969 C 454.449219 68.003906 454.046875 69.328125 453.332031 70.464844 C 452.550781 71.707031 451.410156 72.699219 450.132812 73.421875 C 448.855469 74.140625 447.4375 74.597656 446 74.886719 C 443.121094 75.464844 440.15625 75.390625 437.238281 75.71875 C 428.851562 76.664062 421.246094 80.867188 413.402344 83.984375 C 403.902344 87.765625 393.402344 90.019531 383.4375 87.730469 C 379.859375 86.910156 376.445312 85.523438 372.972656 84.339844 C 369.5 83.15625 365.902344 82.160156 362.234375 82.167969 C 356.210938 82.175781 350.550781 84.855469 345.15625 87.539062 C 342.1875 89.015625 339.214844 90.515625 336.089844 91.632812 C 332.96875 92.75 329.664062 93.480469 326.347656 93.359375 C 323.03125 93.234375 319.695312 92.21875 317.109375 90.136719 C 315.820312 89.09375 314.726562 87.796875 313.972656 86.320312 C 313.214844 84.84375 312.796875 83.1875 312.816406 81.527344 C 312.835938 79.894531 313.269531 78.289062 313.878906 76.773438 C 314.488281 75.257812 315.269531 73.820312 316.019531 72.367188 C 316.769531 70.917969 317.492188 69.441406 317.964844 67.878906 C 318.441406 66.316406 318.664062 64.652344 318.398438 63.039062 C 318.15625 61.570312 317.515625 60.1875 316.683594 58.953125 C 315.847656 57.722656 314.824219 56.628906 313.75 55.59375 C 311.609375 53.527344 309.234375 51.621094 307.683594 49.082031 C 306.273438 46.769531 305.628906 44.019531 305.734375 41.3125 C 305.84375 38.605469 306.6875 35.949219 308.050781 33.609375 C 310.773438 28.925781 315.457031 25.621094 320.5 23.644531 Z M 320.5 23.644531 " fill-opacity="1" fill-rule="nonzero"/></g><path fill="#ad3f3f" d="M -47.183594 318.164062 C -33.082031 312.632812 -16.980469 314.089844 -2.738281 319.25 C 2.9375 321.304688 8.398438 323.917969 14.0625 325.996094 C 19.730469 328.074219 25.699219 329.617188 31.730469 329.410156 C 37.855469 329.195312 43.773438 327.1875 49.457031 324.890625 C 55.140625 322.589844 60.730469 319.972656 66.664062 318.441406 C 73.65625 316.632812 81.128906 316.390625 88.082031 318.351562 C 95.035156 320.308594 101.421875 324.554688 105.4375 330.5625 C 109.21875 336.21875 110.800781 343.171875 114.886719 348.613281 C 119.355469 354.566406 126.3125 358.070312 131.71875 363.183594 C 134.421875 365.742188 136.773438 368.78125 137.941406 372.316406 C 138.523438 374.082031 138.800781 375.957031 138.664062 377.8125 C 138.527344 379.667969 137.972656 381.503906 136.980469 383.078125 C 135.898438 384.800781 134.316406 386.179688 132.542969 387.179688 C 130.769531 388.179688 128.808594 388.808594 126.8125 389.210938 C 122.824219 390.011719 118.710938 389.910156 114.667969 390.363281 C 103.039062 391.675781 92.496094 397.5 81.621094 401.824219 C 68.449219 407.066406 53.890625 410.191406 40.074219 407.015625 C 35.117188 405.878906 30.378906 403.957031 25.566406 402.316406 C 20.75 400.675781 15.765625 399.296875 10.679688 399.304688 C 2.328125 399.316406 -5.519531 403.03125 -12.996094 406.75 C -17.113281 408.800781 -21.234375 410.878906 -25.566406 412.429688 C -29.898438 413.976562 -34.476562 414.988281 -39.074219 414.820312 C -43.667969 414.652344 -48.300781 413.238281 -51.878906 410.351562 C -53.671875 408.90625 -55.183594 407.109375 -56.230469 405.0625 C -57.28125 403.011719 -57.859375 400.71875 -57.832031 398.417969 C -57.808594 396.152344 -57.207031 393.925781 -56.359375 391.824219 C -55.515625 389.722656 -54.429688 387.730469 -53.390625 385.71875 C -52.351562 383.707031 -51.351562 381.660156 -50.695312 379.492188 C -50.035156 377.328125 -49.726562 375.019531 -50.09375 372.785156 C -50.429688 370.75 -51.316406 368.832031 -52.472656 367.121094 C -53.628906 365.410156 -55.050781 363.898438 -56.535156 362.464844 C -59.507812 359.597656 -62.800781 356.957031 -64.949219 353.433594 C -66.90625 350.226562 -67.800781 346.414062 -67.652344 342.664062 C -67.5 338.910156 -66.332031 335.226562 -64.441406 331.980469 C -60.667969 325.488281 -54.175781 320.90625 -47.183594 318.164062 Z M -47.183594 318.164062 " fill-opacity="1" fill-rule="nonzero"/><g clip-path="url(#efaa06e055)"><path fill="#ff5757" d="M 22.0625 395.746094 C 17.71875 395.710938 12.941406 395.265625 8.496094 395.429688 C 3.773438 395.613281 -0.738281 397.1875 -5.378906 397.925781 C -13.550781 399.0625 -21.019531 393.609375 -25.378906 387.125 C -28.589844 382.53125 -29.78125 376.796875 -29.144531 371.242188 C -29.027344 369.386719 -28.265625 367.753906 -27.574219 366.101562 C -26.652344 363.886719 -25.628906 361.710938 -24.132812 359.8125 C -19.214844 353.847656 -12.265625 350.105469 -6.398438 345.195312 C -5.824219 344.742188 -5.425781 344.152344 -5.089844 343.503906 C -3.261719 339.734375 -1.363281 335.628906 2.65625 333.769531 C 9.203125 330.132812 17.789062 331.179688 23.382812 336.167969 C 24.777344 337.4375 25.941406 338.925781 27.355469 340.167969 C 31.433594 343.949219 35.464844 348.550781 41.132812 349.753906 C 47.136719 350.269531 50.257812 345.8125 56.691406 347.835938 C 62.917969 349.476562 65.027344 356.71875 64.753906 362.488281 C 64.289062 367.71875 62.191406 372.691406 59.382812 377.082031 C 50.269531 390.144531 37.910156 396.035156 22.0625 395.746094 Z M 22.0625 395.746094 " fill-opacity="1" fill-rule="nonzero"/></g><path fill="#ad3f3f" d="M -35.183594 330.164062 C -21.082031 324.632812 -4.980469 326.089844 9.261719 331.25 C 14.9375 333.304688 20.398438 335.917969 26.0625 337.996094 C 31.730469 340.074219 37.699219 341.617188 43.730469 341.410156 C 49.855469 341.195312 55.773438 339.1875 61.457031 336.890625 C 67.140625 334.589844 72.730469 331.972656 78.664062 330.441406 C 85.65625 328.632812 93.128906 328.390625 100.082031 330.351562 C 107.035156 332.308594 113.421875 336.554688 117.4375 342.5625 C 121.21875 348.21875 122.800781 355.171875 126.886719 360.613281 C 131.355469 366.566406 138.3125 370.070312 143.71875 375.183594 C 146.421875 377.742188 148.773438 380.78125 149.941406 384.316406 C 150.523438 386.082031 150.800781 387.957031 150.664062 389.8125 C 150.527344 391.667969 149.972656 393.503906 148.980469 395.078125 C 147.898438 396.800781 146.316406 398.179688 144.542969 399.179688 C 142.769531 400.179688 140.808594 400.808594 138.8125 401.210938 C 134.824219 402.011719 130.710938 401.910156 126.667969 402.363281 C 115.039062 403.675781 104.496094 409.5 93.621094 413.824219 C 80.449219 419.066406 65.890625 422.191406 52.074219 419.015625 C 47.117188 417.878906 42.378906 415.957031 37.566406 414.316406 C 32.75 412.675781 27.765625 411.296875 22.679688 411.304688 C 14.328125 411.316406 6.480469 415.03125 -0.996094 418.75 C -5.113281 420.800781 -9.234375 422.878906 -13.566406 424.429688 C -17.898438 425.976562 -22.476562 426.988281 -27.074219 426.820312 C -31.667969 426.652344 -36.300781 425.238281 -39.878906 422.351562 C -41.671875 420.90625 -43.183594 419.109375 -44.230469 417.0625 C -45.28125 415.011719 -45.859375 412.71875 -45.832031 410.417969 C -45.808594 408.152344 -45.207031 405.925781 -44.359375 403.824219 C -43.515625 401.722656 -42.429688 399.730469 -41.390625 397.71875 C -40.351562 395.707031 -39.351562 393.660156 -38.695312 391.492188 C -38.035156 389.328125 -37.726562 387.019531 -38.09375 384.785156 C -38.429688 382.75 -39.316406 380.832031 -40.472656 379.121094 C -41.628906 377.410156 -43.050781 375.898438 -44.535156 374.464844 C -47.507812 371.597656 -50.800781 368.957031 -52.949219 365.433594 C -54.90625 362.226562 -55.800781 358.414062 -55.652344 354.664062 C -55.5 350.910156 -54.332031 347.226562 -52.441406 343.980469 C -48.667969 337.488281 -42.175781 332.90625 -35.183594 330.164062 Z M -35.183594 330.164062 " fill-opacity="1" fill-rule="nonzero"/><path fill="#ff5757" d="M 363.78125 390.460938 C 356.394531 390.398438 348.273438 389.644531 340.714844 389.925781 C 332.6875 390.234375 325.015625 392.910156 317.132812 394.167969 C 303.238281 396.09375 290.542969 386.824219 283.128906 375.804688 C 277.671875 367.996094 275.644531 358.246094 276.726562 348.804688 C 276.925781 345.648438 278.226562 342.875 279.398438 340.0625 C 280.964844 336.300781 282.707031 332.605469 285.246094 329.371094 C 293.605469 319.238281 305.421875 312.871094 315.394531 304.527344 C 316.371094 303.757812 317.046875 302.75 317.621094 301.652344 C 320.730469 295.242188 323.957031 288.261719 330.792969 285.101562 C 341.921875 278.917969 356.515625 280.699219 366.023438 289.175781 C 368.394531 291.335938 370.375 293.867188 372.777344 295.980469 C 379.710938 302.40625 386.558594 310.230469 396.199219 312.273438 C 406.40625 313.152344 411.710938 305.570312 422.648438 309.015625 C 433.230469 311.800781 436.816406 324.113281 436.351562 333.925781 C 435.5625 342.8125 431.996094 351.269531 427.222656 358.730469 C 411.730469 380.9375 390.714844 390.949219 363.78125 390.460938 Z M 363.78125 390.460938 " fill-opacity="1" fill-rule="nonzero"/></svg>